<mxfile host="app.diagrams.net" agent="Mozilla/5.0 (Windows NT 10.0; Win64; x64) AppleWebKit/537.36 (KHTML, like Gecko) Chrome/131.0.0.0 Safari/537.36 Edg/131.0.0.0" version="25.0.1">
  <diagram name="Page-1" id="Km9lxlsePqVXy1afZFEZ">
    <mxGraphModel dx="1235" dy="632" grid="1" gridSize="10" guides="1" tooltips="1" connect="1" arrows="1" fold="1" page="1" pageScale="1" pageWidth="827" pageHeight="1169" background="none" math="0" shadow="0">
      <root>
        <mxCell id="0" />
        <mxCell id="1" parent="0" />
        <mxCell id="HNWl2DZ0hspPBPbSKBmC-4" value="&lt;div&gt;&lt;br&gt;&lt;/div&gt;" style="whiteSpace=wrap;html=1;aspect=fixed;labelBackgroundColor=none;" vertex="1" parent="1">
          <mxGeometry x="542.5" width="270" height="270" as="geometry" />
        </mxCell>
        <mxCell id="HNWl2DZ0hspPBPbSKBmC-20" style="edgeStyle=orthogonalEdgeStyle;rounded=0;orthogonalLoop=1;jettySize=auto;html=1;" edge="1" parent="1" source="HNWl2DZ0hspPBPbSKBmC-10" target="HNWl2DZ0hspPBPbSKBmC-12">
          <mxGeometry relative="1" as="geometry" />
        </mxCell>
        <mxCell id="HNWl2DZ0hspPBPbSKBmC-10" value="" style="ellipse;fillColor=strokeColor;html=1;" vertex="1" parent="1">
          <mxGeometry x="355" y="50" width="30" height="30" as="geometry" />
        </mxCell>
        <mxCell id="HNWl2DZ0hspPBPbSKBmC-11" value="" style="ellipse;html=1;shape=endState;fillColor=strokeColor;" vertex="1" parent="1">
          <mxGeometry x="355" y="610" width="30" height="30" as="geometry" />
        </mxCell>
        <mxCell id="HNWl2DZ0hspPBPbSKBmC-14" style="edgeStyle=orthogonalEdgeStyle;rounded=0;orthogonalLoop=1;jettySize=auto;html=1;entryX=0.5;entryY=0;entryDx=0;entryDy=0;" edge="1" parent="1" source="HNWl2DZ0hspPBPbSKBmC-12" target="HNWl2DZ0hspPBPbSKBmC-13">
          <mxGeometry relative="1" as="geometry">
            <Array as="points">
              <mxPoint x="630" y="330" />
            </Array>
          </mxGeometry>
        </mxCell>
        <mxCell id="HNWl2DZ0hspPBPbSKBmC-17" style="edgeStyle=orthogonalEdgeStyle;rounded=0;orthogonalLoop=1;jettySize=auto;html=1;" edge="1" parent="1" source="HNWl2DZ0hspPBPbSKBmC-12">
          <mxGeometry relative="1" as="geometry">
            <mxPoint x="120" y="400" as="targetPoint" />
          </mxGeometry>
        </mxCell>
        <mxCell id="HNWl2DZ0hspPBPbSKBmC-12" value="&lt;div&gt;&lt;span style=&quot;font-size: 11px; background-color: initial;&quot;&gt;Input&lt;/span&gt;&lt;/div&gt;&lt;div&gt;&lt;span style=&quot;font-size: 6px;&quot;&gt;isNumeric=hasOnylDigits&lt;/span&gt;&lt;span style=&quot;font-size: 11px; background-color: initial;&quot;&gt;&lt;/span&gt;&lt;/div&gt;" style="strokeWidth=2;html=1;shape=mxgraph.flowchart.decision;whiteSpace=wrap;" vertex="1" parent="1">
          <mxGeometry x="320" y="280" width="100" height="100" as="geometry" />
        </mxCell>
        <mxCell id="HNWl2DZ0hspPBPbSKBmC-13" value="System.out.println(hasOnlyDigits)" style="html=1;whiteSpace=wrap;" vertex="1" parent="1">
          <mxGeometry x="530" y="410" width="200" height="50" as="geometry" />
        </mxCell>
        <mxCell id="HNWl2DZ0hspPBPbSKBmC-16" style="edgeStyle=orthogonalEdgeStyle;rounded=0;orthogonalLoop=1;jettySize=auto;html=1;entryX=0.5;entryY=1;entryDx=0;entryDy=0;entryPerimeter=0;" edge="1" parent="1" source="HNWl2DZ0hspPBPbSKBmC-13" target="HNWl2DZ0hspPBPbSKBmC-12">
          <mxGeometry relative="1" as="geometry" />
        </mxCell>
        <mxCell id="HNWl2DZ0hspPBPbSKBmC-33" style="edgeStyle=orthogonalEdgeStyle;rounded=0;orthogonalLoop=1;jettySize=auto;html=1;entryX=0.5;entryY=0;entryDx=0;entryDy=0;" edge="1" parent="1" source="HNWl2DZ0hspPBPbSKBmC-18" target="HNWl2DZ0hspPBPbSKBmC-11">
          <mxGeometry relative="1" as="geometry">
            <Array as="points">
              <mxPoint x="125" y="510" />
              <mxPoint x="370" y="510" />
            </Array>
          </mxGeometry>
        </mxCell>
        <mxCell id="HNWl2DZ0hspPBPbSKBmC-18" value="exit" style="html=1;whiteSpace=wrap;" vertex="1" parent="1">
          <mxGeometry x="70" y="400" width="110" height="50" as="geometry" />
        </mxCell>
        <mxCell id="HNWl2DZ0hspPBPbSKBmC-19" value="input == exit" style="text;html=1;align=center;verticalAlign=middle;whiteSpace=wrap;rounded=0;" vertex="1" parent="1">
          <mxGeometry x="110" y="313" width="210" height="20" as="geometry" />
        </mxCell>
        <mxCell id="HNWl2DZ0hspPBPbSKBmC-23" value="" style="edgeStyle=orthogonalEdgeStyle;rounded=0;orthogonalLoop=1;jettySize=auto;html=1;" edge="1" parent="1" source="HNWl2DZ0hspPBPbSKBmC-21" target="HNWl2DZ0hspPBPbSKBmC-22">
          <mxGeometry relative="1" as="geometry" />
        </mxCell>
        <mxCell id="HNWl2DZ0hspPBPbSKBmC-28" value="" style="edgeStyle=orthogonalEdgeStyle;rounded=0;orthogonalLoop=1;jettySize=auto;html=1;" edge="1" parent="1" source="HNWl2DZ0hspPBPbSKBmC-21" target="HNWl2DZ0hspPBPbSKBmC-27">
          <mxGeometry relative="1" as="geometry" />
        </mxCell>
        <mxCell id="HNWl2DZ0hspPBPbSKBmC-21" value="input" style="rhombus;whiteSpace=wrap;html=1;" vertex="1" parent="1">
          <mxGeometry x="640" y="70" width="75" height="70" as="geometry" />
        </mxCell>
        <mxCell id="HNWl2DZ0hspPBPbSKBmC-31" style="edgeStyle=orthogonalEdgeStyle;rounded=0;orthogonalLoop=1;jettySize=auto;html=1;entryX=1;entryY=0.5;entryDx=0;entryDy=0;" edge="1" parent="1" source="HNWl2DZ0hspPBPbSKBmC-22" target="HNWl2DZ0hspPBPbSKBmC-29">
          <mxGeometry relative="1" as="geometry">
            <Array as="points">
              <mxPoint x="710" y="165" />
              <mxPoint x="710" y="245" />
            </Array>
          </mxGeometry>
        </mxCell>
        <mxCell id="HNWl2DZ0hspPBPbSKBmC-22" value="return false" style="whiteSpace=wrap;html=1;" vertex="1" parent="1">
          <mxGeometry x="730" y="150" width="70" height="30" as="geometry" />
        </mxCell>
        <mxCell id="HNWl2DZ0hspPBPbSKBmC-25" style="edgeStyle=orthogonalEdgeStyle;rounded=0;orthogonalLoop=1;jettySize=auto;html=1;entryX=0.5;entryY=0;entryDx=0;entryDy=0;" edge="1" parent="1" source="HNWl2DZ0hspPBPbSKBmC-24" target="HNWl2DZ0hspPBPbSKBmC-21">
          <mxGeometry relative="1" as="geometry" />
        </mxCell>
        <mxCell id="HNWl2DZ0hspPBPbSKBmC-24" value="" style="ellipse;fillColor=strokeColor;html=1;" vertex="1" parent="1">
          <mxGeometry x="662.5" y="10" width="30" height="30" as="geometry" />
        </mxCell>
        <mxCell id="HNWl2DZ0hspPBPbSKBmC-26" value="input == 0|| !=isDigit" style="text;html=1;align=center;verticalAlign=middle;whiteSpace=wrap;rounded=0;" vertex="1" parent="1">
          <mxGeometry x="710" y="80" width="90" as="geometry" />
        </mxCell>
        <mxCell id="HNWl2DZ0hspPBPbSKBmC-30" style="edgeStyle=orthogonalEdgeStyle;rounded=0;orthogonalLoop=1;jettySize=auto;html=1;entryX=0;entryY=0.5;entryDx=0;entryDy=0;" edge="1" parent="1" source="HNWl2DZ0hspPBPbSKBmC-27" target="HNWl2DZ0hspPBPbSKBmC-29">
          <mxGeometry relative="1" as="geometry" />
        </mxCell>
        <mxCell id="HNWl2DZ0hspPBPbSKBmC-27" value="return true" style="whiteSpace=wrap;html=1;" vertex="1" parent="1">
          <mxGeometry x="550" y="150" width="67.5" height="30" as="geometry" />
        </mxCell>
        <mxCell id="HNWl2DZ0hspPBPbSKBmC-29" value="" style="ellipse;html=1;shape=endState;fillColor=strokeColor;" vertex="1" parent="1">
          <mxGeometry x="663" y="230" width="30" height="30" as="geometry" />
        </mxCell>
        <mxCell id="HNWl2DZ0hspPBPbSKBmC-32" value="isNumeric(text)" style="text;html=1;align=center;verticalAlign=middle;whiteSpace=wrap;rounded=0;" vertex="1" parent="1">
          <mxGeometry x="557.5" width="60" height="30" as="geometry" />
        </mxCell>
      </root>
    </mxGraphModel>
  </diagram>
</mxfile>
